# xmcd
#
# Track frame offsets:
#	150
#	14174
#	22827
#	32863
#	46989
#	56252
#	67159
#	76121
#	80038
#	92882
#	107403
#	121964
#	129712
#	142342
#	146743
#
# Disc length: 2012 seconds
#
# Revision: 1
# Processed by: cddbd v1.5.2PL0 Copyright (c) Steve Scherf et al.
# Submitted via: audiograbber 1.83.01
#
DISCID=d507da0f
DTITLE=Sound Ideas Contemporary Country Music - COC-01
DYEAR=2008
DGENRE=Country
TTITLE0=Strong and Free
TTITLE1=Pickup Trucks on Back Roads
TTITLE2=Up and Coming
TTITLE3=Traveling Home
TTITLE4=Riding the New Range
TTITLE5=Make New Friends
TTITLE6=A Little Country Swing
TTITLE7=Friends and Neighbors
TTITLE8=Catch the Wind
TTITLE9=Quick Moving Stream
TTITLE10=Quick Moving Stream Alt
TTITLE11=Lighting the Old Wood Stove
TTITLE12=Gingham Dresses
TTITLE13=Plain Folks
TTITLE14=Sturdy Oak Table
EXTD=
EXTT0=
EXTT1=
EXTT2=
EXTT3=
EXTT4=
EXTT5=
EXTT6=
EXTT7=
EXTT8=
EXTT9=
EXTT10=
EXTT11=
EXTT12=
EXTT13=
EXTT14=
PLAYORDER=
